<?xml version="1.0" encoding="iso-8859-1"?>
<!-- Generator: Adobe Illustrator 19.0.0, SVG Export Plug-In . SVG Version: 6.00 Build 0)  -->
<svg version="1.1" id="Capa_1" xmlns="http://www.w3.org/2000/svg" xmlns:xlink="http://www.w3.org/1999/xlink" x="0px" y="0px"
	 viewBox="0 0 512.001 512.001" style="enable-background:new 0 0 512.001 512.001;" xml:space="preserve">
<g>
	<path style="fill:#ABFFDB;" d="M256.001,23.532c-103.948,0-195.378,44.648-248.5,112.226h248.5V23.532z"/>
	<path style="fill:#ABFFDB;" d="M256.001,23.532c103.948,0,195.378,44.648,248.5,112.226h-248.5V23.532z"/>
</g>
<path style="fill:#FFC850;" d="M151.791,135.758l9.985,24.963c3.652,9.13,12.495,15.117,22.329,15.117h143.791
	c9.834,0,18.677-5.987,22.329-15.117l9.985-24.963H151.791z"/>
<g>
	<path style="fill:#92E0C0;" d="M360.211,135.758l9.985,24.963c3.652,9.13,12.495,15.117,22.329,15.117h79.662
		c9.834,0,18.677-5.987,22.329-15.117l9.985-24.963H360.211z"/>
	<path style="fill:#92E0C0;" d="M151.791,135.758l-9.985,24.964c-3.652,9.13-12.495,15.117-22.328,15.117H39.815
		c-9.833,0-18.676-5.987-22.328-15.117l-9.986-24.964"/>
</g>
<path style="fill:#FFFFFF;" d="M256.001,23.532c-43.591,0-81.933,44.648-104.21,112.226h208.42
	C337.934,68.181,299.592,23.532,256.001,23.532z"/>
<path style="fill:#FFC850;" d="M256.001,472.435c-33.337,0-61.62,13.396-72.145,32.065h144.29
	C317.621,485.832,289.338,472.435,256.001,472.435z"/>
<path style="fill:#FEA82F;" d="M278.879,474.695c-0.033-0.007-0.069-0.032-0.102-0.04c-7.2-1.413-14.83-2.22-22.776-2.22
	c-33.337,0-61.62,13.396-72.145,32.065h43.309C234.409,490.468,253.823,479.264,278.879,474.695z"/>
<path style="fill:#474D54;" d="M510.397,131.123C455.13,60.816,363.263,18.157,263.501,16.117V7.5c0-4.142-3.358-7.5-7.5-7.5
	s-7.5,3.358-7.5,7.5v8.617C148.739,18.157,56.872,60.816,1.604,131.123c-1.662,2.115-2.039,4.941-1.049,7.414l-0.018,0.007
	l9.985,24.964c4.819,12.047,16.317,19.832,29.292,19.832h79.663c12.975,0,24.473-7.785,29.292-19.832l3.022-7.555l3.022,7.555
	c4.818,12.047,16.316,19.832,29.292,19.832h64.396v281.816c-30.227,1.714-56.211,13.719-68.778,31.845h-19.915
	c-4.142,0-7.5,3.358-7.5,7.5s3.358,7.5,7.5,7.5h192.387c4.142,0,7.5-3.358,7.5-7.5s-3.358-7.5-7.5-7.5H332.28
	c-12.567-18.125-38.551-30.131-68.778-31.845V183.339h64.396c12.976,0,24.473-7.785,29.292-19.832l3.022-7.555l3.022,7.555
	c4.819,12.047,16.316,19.832,29.292,19.832h79.663c12.975,0,24.473-7.784,29.292-19.832l9.985-24.963l-0.018-0.007
	C512.436,136.064,512.06,133.238,510.397,131.123z M311.949,497H200.053c12.798-10.529,33.405-17.065,55.948-17.065
	S299.15,486.471,311.949,497z M140.714,143.258l-5.872,14.679c-2.513,6.283-8.598,10.402-15.365,10.402H39.815
	c-6.806,0-12.837-4.083-15.365-10.402l-8.782-21.77l7.909-7.909c44.637-49.932,109.919-83.136,182.537-93.641l49.887-3.585
	l49.923,3.589c72.603,10.51,137.871,43.712,182.501,93.636l7.951,8.117l-8.824,21.561c-2.528,6.319-8.559,10.403-15.365,10.403
	h-79.663c-6.767,0-12.852-4.12-15.365-10.402l-5.871-14.679l-2.355-3.085c-4.392-5.752-13.052-5.752-17.445,0l-2.355,3.085
	l-5.871,14.678c-2.513,6.283-8.598,10.403-15.365,10.403H184.105c-6.767,0-12.852-4.12-15.365-10.403l-5.871-14.678l-1.304-2.031
	c-4.571-7.12-14.977-7.12-19.547,0L140.714,143.258z"/>
<g>
</g>
<g>
</g>
<g>
</g>
<g>
</g>
<g>
</g>
<g>
</g>
<g>
</g>
<g>
</g>
<g>
</g>
<g>
</g>
<g>
</g>
<g>
</g>
<g>
</g>
<g>
</g>
<g>
</g>
</svg>
