<?xml version="1.0" encoding="UTF-8" standalone="no"?> <svg width="64" height="64" viewBox="0 0 64 64" fill="none" xmlns="http://www.w3.org/2000/svg">
<path d="M29 24H25V32H29V24Z" fill="#79BD9A"/>
<path d="M34 24H20L27 14L34 24Z" fill="#79BD9A"/>
<path d="M33 18H21L27 8L33 18Z" fill="#79BD9A"/>
<path d="M32 12H22L27 4L32 12Z" fill="#79BD9A"/>
<path d="M27 61H5L16 37L27 61Z" fill="#A8DBA8"/>
<path d="M21.5 61H10.5L16 57V51L21.5 61Z" fill="#79BD9A"/>
<path d="M50 54.25C49.9356 55.2671 49.4862 56.2216 48.7431 56.9191C48.0001 57.6166 47.0192 58.0049 46 58.0049C44.9808 58.0049 43.9999 57.6166 43.2569 56.9191C42.5138 56.2216 42.0644 55.2671 42 54.25C42 52.179 43.791 48 46 48C48.209 48 50 52.179 50 54.25Z" fill="#CFF09E"/>
<path d="M48 56C48 56.5304 47.7893 57.0391 47.4142 57.4142C47.0391 57.7893 46.5304 58 46 58C45.4696 58 44.9609 57.7893 44.5858 57.4142C44.2107 57.0391 44 56.5304 44 56C44 54.9 44.9 53 46 53C47.1 53 48 54.9 48 56Z" fill="#A8DBA8"/>
<path d="M29 24L23 30V42H38V28H46V42H61V24H29ZM33 35H27V31L30.5 28H33V35ZM56 34H50V28H56V34Z" fill="#A8DBA8"/>
<path d="M53 45C54.6569 45 56 43.6569 56 42C56 40.3431 54.6569 39 53 39C51.3431 39 50 40.3431 50 42C50 43.6569 51.3431 45 53 45Z" fill="#79BD9A"/>
<path d="M31 45C32.6569 45 34 43.6569 34 42C34 40.3431 32.6569 39 31 39C29.3431 39 28 40.3431 28 42C28 43.6569 29.3431 45 31 45Z" fill="#79BD9A"/>
<path d="M50 28V34H56V28H50ZM55 33C53.9391 33 52.9217 32.5786 52.1716 31.8284C51.4214 31.0783 51 30.0609 51 29H54C54.2652 29 54.5196 29.1054 54.7071 29.2929C54.8946 29.4804 55 29.7348 55 30V33Z" fill="#CFF09E"/>
<path d="M30.5 28L27 31V35H33V28H30.5ZM32 34C31.2044 34 30.4413 33.6839 29.8787 33.1213C29.3161 32.5587 29 31.7956 29 31L30.445 30.036C30.5957 29.9355 30.7708 29.8778 30.9517 29.869C31.1326 29.8603 31.3125 29.9008 31.4722 29.9864C31.6319 30.0719 31.7653 30.1992 31.8583 30.3546C31.9512 30.5101 32.0002 30.6879 32 30.869V34Z" fill="#CFF09E"/>
<path d="M38 28V42H46V28H38ZM44 39C42.9391 39 41.9217 38.5786 41.1716 37.8284C40.4214 37.0783 40 36.0609 40 35V30H43C43.2652 30 43.5196 30.1054 43.7071 30.2929C43.8946 30.4804 44 30.7348 44 31V39Z" fill="#CFF09E"/>
<path d="M46 15C44.6739 15 43.4022 14.4732 42.4645 13.5355C41.5268 12.5978 41 11.3261 41 10C41 9.27126 41.1614 8.55156 41.4726 7.89263C41.7838 7.23369 42.2372 6.65188 42.8 6.189C42.0728 6.36741 41.3952 6.7076 40.8178 7.18422C40.2403 7.66085 39.7778 8.26163 39.4648 8.94181C39.1517 9.62199 38.9962 10.364 39.0097 11.1127C39.0233 11.8613 39.2056 12.5972 39.543 13.2657C39.8804 13.9341 40.3644 14.5177 40.9587 14.9731C41.553 15.4286 42.2424 15.744 42.9756 15.896C43.7088 16.048 44.4668 16.0326 45.1932 15.851C45.9196 15.6694 46.5957 15.3262 47.171 14.847C46.7881 14.9441 46.395 14.9954 46 15V15Z" fill="#CFF09E"/>
<path d="M12 24H8V32H12V24Z" fill="#79BD9A"/>
<path d="M17 24H3L10 14L17 24Z" fill="#79BD9A"/>
<path d="M16 18H4L10 8L16 18Z" fill="#79BD9A"/>
<path d="M15 12H5L10 4L15 12Z" fill="#79BD9A"/>
<path d="M3.00002 25H7.00002V32C7.00002 32.2652 7.10537 32.5196 7.29291 32.7071C7.48045 32.8946 7.7348 33 8.00002 33C8.26523 33 8.51959 32.8946 8.70712 32.7071C8.89466 32.5196 9.00002 32.2652 9.00002 32V25H11V32C11 32.2652 11.1054 32.5196 11.2929 32.7071C11.4804 32.8946 11.7348 33 12 33C12.2652 33 12.5196 32.8946 12.7071 32.7071C12.8947 32.5196 13 32.2652 13 32V25H17C17.1829 24.9999 17.3622 24.9497 17.5184 24.8548C17.6747 24.7599 17.802 24.624 17.8864 24.4618C17.9709 24.2996 18.0092 24.1174 17.9973 23.935C17.9855 23.7525 17.9238 23.5768 17.819 23.427L14.72 19H16C16.177 19 16.3508 18.9529 16.5037 18.8638C16.6566 18.7746 16.7831 18.6464 16.8702 18.4924C16.9574 18.3383 17.0021 18.1639 16.9997 17.9869C16.9974 17.8099 16.9482 17.6367 16.857 17.485L14.166 13H15C15.1785 13 15.3538 12.9522 15.5076 12.8616C15.6614 12.771 15.7881 12.6409 15.8747 12.4848C15.9612 12.3286 16.0044 12.1522 15.9997 11.9737C15.995 11.7953 15.9426 11.6214 15.848 11.47L10.848 3.46999C10.7521 3.33361 10.6249 3.2223 10.4769 3.14546C10.329 3.06862 10.1647 3.0285 9.99802 3.0285C9.83131 3.0285 9.66705 3.06862 9.51911 3.14546C9.37117 3.2223 9.24389 3.33361 9.14802 3.46999L4.14802 11.47C4.05323 11.6217 4.00085 11.796 3.99633 11.9747C3.99181 12.1535 4.03533 12.3303 4.12234 12.4865C4.20935 12.6428 4.33667 12.7728 4.49104 12.8631C4.64541 12.9534 4.82117 13.0007 5.00002 13H5.83402L3.14302 17.485C3.05186 17.6367 3.00261 17.8099 3.00029 17.9869C2.99797 18.1639 3.04267 18.3383 3.12982 18.4924C3.21696 18.6464 3.34344 18.7746 3.49632 18.8638C3.6492 18.9529 3.82302 19 4.00002 19H5.28002L2.18002 23.427C2.07521 23.5769 2.01352 23.7527 2.00167 23.9352C1.98983 24.1178 2.02827 24.3 2.11283 24.4622C2.19738 24.6244 2.32481 24.7604 2.48124 24.8552C2.63766 24.95 2.8171 25.0001 3.00002 25ZM10 5.88699L13.2 11H6.80002L10 5.88699ZM8.16702 13H11.833L14.233 17H5.76602L8.16702 13ZM7.72102 19H12.279L15.079 23H4.92102L7.72102 19Z" fill="#3B8686"/>
<path d="M61 23H34.521L31.721 19H33C33.177 19 33.3508 18.9529 33.5037 18.8638C33.6566 18.7746 33.7831 18.6464 33.8702 18.4924C33.9574 18.3383 34.0021 18.1639 33.9997 17.9869C33.9974 17.8099 33.9482 17.6367 33.857 17.485L31.166 13H32C32.1785 13 32.3538 12.9522 32.5076 12.8616C32.6614 12.771 32.7881 12.6409 32.8747 12.4848C32.9612 12.3286 33.0044 12.1522 32.9997 11.9737C32.995 11.7953 32.9426 11.6214 32.848 11.47L27.848 3.46999C27.7521 3.33361 27.6249 3.2223 27.4769 3.14546C27.329 3.06862 27.1647 3.0285 26.998 3.0285C26.8313 3.0285 26.6671 3.06862 26.5191 3.14546C26.3712 3.2223 26.2439 3.33361 26.148 3.46999L21.148 11.47C21.0532 11.6217 21.0008 11.796 20.9963 11.9747C20.9918 12.1535 21.0353 12.3303 21.1223 12.4865C21.2093 12.6428 21.3367 12.7728 21.491 12.8631C21.6454 12.9534 21.8212 13.0007 22 13H22.834L20.143 17.485C20.0519 17.6367 20.0026 17.8099 20.0003 17.9869C19.998 18.1639 20.0427 18.3383 20.1298 18.4924C20.217 18.6464 20.3434 18.7746 20.4963 18.8638C20.6492 18.9529 20.823 19 21 19H22.28L19.18 23.427C19.0752 23.5769 19.0135 23.7527 19.0017 23.9352C18.9898 24.1178 19.0283 24.3 19.1128 24.4622C19.1974 24.6244 19.3248 24.7604 19.4812 24.8552C19.6377 24.95 19.8171 25.0001 20 25H23V28.586L22.293 29.293C22.1055 29.4805 22.0001 29.7348 22 30V42C22 42.2652 22.1054 42.5196 22.2929 42.7071C22.4804 42.8946 22.7348 43 23 43H27.142C27.3603 43.8576 27.8581 44.618 28.5567 45.1611C29.2554 45.7042 30.1151 45.9991 31 45.9991C31.8849 45.9991 32.7446 45.7042 33.4433 45.1611C34.142 44.618 34.6397 43.8576 34.858 43H49.142C49.3603 43.8576 49.8581 44.618 50.5567 45.1611C51.2554 45.7042 52.1151 45.9991 53 45.9991C53.8849 45.9991 54.7446 45.7042 55.4433 45.1611C56.142 44.618 56.6397 43.8576 56.858 43H61C61.2652 43 61.5196 42.8946 61.7071 42.7071C61.8947 42.5196 62 42.2652 62 42V24C62 23.7348 61.8947 23.4804 61.7071 23.2929C61.5196 23.1053 61.2652 23 61 23ZM27 5.88699L30.2 11H23.8L27 5.88699ZM25.167 13H28.833L31.233 17H22.766L25.167 13ZM24.721 19H29.279L32.079 23H21.921L24.721 19ZM25 25H26.586L25 26.586V25ZM31 44C30.6045 44 30.2178 43.8827 29.8889 43.6629C29.56 43.4432 29.3036 43.1308 29.1523 42.7654C29.0009 42.3999 28.9613 41.9978 29.0384 41.6098C29.1156 41.2218 29.3061 40.8655 29.5858 40.5858C29.8655 40.3061 30.2219 40.1156 30.6098 40.0384C30.9978 39.9613 31.3999 40.0009 31.7654 40.1522C32.1308 40.3036 32.4432 40.56 32.663 40.8889C32.8827 41.2177 33 41.6044 33 42C33 42.5304 32.7893 43.0391 32.4142 43.4142C32.0392 43.7893 31.5305 44 31 44ZM39 41V36H40C40.2652 36 40.5196 35.8946 40.7071 35.7071C40.8947 35.5196 41 35.2652 41 35C41 34.7348 40.8947 34.4804 40.7071 34.2929C40.5196 34.1053 40.2652 34 40 34H39V29H45V41H39ZM53 44C52.6045 44 52.2178 43.8827 51.8889 43.6629C51.56 43.4432 51.3036 43.1308 51.1523 42.7654C51.0009 42.3999 50.9613 41.9978 51.0384 41.6098C51.1156 41.2218 51.3061 40.8655 51.5858 40.5858C51.8655 40.3061 52.2219 40.1156 52.6098 40.0384C52.9978 39.9613 53.3999 40.0009 53.7654 40.1522C54.1308 40.3036 54.4432 40.56 54.663 40.8889C54.8827 41.2177 55 41.6044 55 42C55 42.5304 54.7893 43.0391 54.4142 43.4142C54.0392 43.7893 53.5304 44 53 44ZM60 41H56.858C56.6397 40.1424 56.142 39.382 55.4433 38.8389C54.7446 38.2958 53.8849 38.0009 53 38.0009C52.1151 38.0009 51.2554 38.2958 50.5567 38.8389C49.8581 39.382 49.3603 40.1424 49.142 41H47V28C47 27.7348 46.8947 27.4804 46.7071 27.2929C46.5196 27.1053 46.2652 27 46 27H38C37.7348 27 37.4804 27.1053 37.2929 27.2929C37.1054 27.4804 37 27.7348 37 28V41H34.858C34.6397 40.1424 34.142 39.382 33.4433 38.8389C32.7446 38.2958 31.8849 38.0009 31 38.0009C30.1151 38.0009 29.2554 38.2958 28.5567 38.8389C27.8581 39.382 27.3603 40.1424 27.142 41H24V30.414L29.414 25H60V41Z" fill="#3B8686"/>
<path d="M33 27H30.5C30.2612 27 30.0303 27.0855 29.849 27.241L26.349 30.241C26.2395 30.3349 26.1517 30.4513 26.0914 30.5823C26.0312 30.7133 26 30.8558 26 31V35C26 35.2652 26.1054 35.5196 26.2929 35.7071C26.4804 35.8946 26.7348 36 27 36H33C33.2652 36 33.5196 35.8946 33.7071 35.7071C33.8946 35.5196 34 35.2652 34 35V28C34 27.7348 33.8946 27.4804 33.7071 27.2929C33.5196 27.1054 33.2652 27 33 27ZM32 34H28V31.46L30.87 29H32V34Z" fill="#3B8686"/>
<path d="M50 35H56C56.2652 35 56.5196 34.8946 56.7071 34.7071C56.8946 34.5196 57 34.2652 57 34V28C57 27.7348 56.8946 27.4804 56.7071 27.2929C56.5196 27.1054 56.2652 27 56 27H50C49.7348 27 49.4804 27.1054 49.2929 27.2929C49.1054 27.4804 49 27.7348 49 28V34C49 34.2652 49.1054 34.5196 49.2929 34.7071C49.4804 34.8946 49.7348 35 50 35ZM51 29H55V33H51V29Z" fill="#3B8686"/>
<path d="M44 17C45.1814 17.0013 46.3367 16.6533 47.3209 15.9998C48.305 15.3462 49.0739 14.4164 49.531 13.327C49.5992 13.1654 49.6236 12.9887 49.6019 12.8146C49.5802 12.6406 49.5131 12.4753 49.4073 12.3354C49.3015 12.1955 49.1608 12.0859 48.9993 12.0175C48.8377 11.9492 48.6611 11.9245 48.487 11.946L48.326 11.967C48.2182 11.9856 48.1093 11.9966 48 12C46.9391 12 45.9217 11.5786 45.1716 10.8284C44.4214 10.0783 44 9.06087 44 8C43.999 7.46754 44.1054 6.94035 44.313 6.45C44.3812 6.28839 44.4056 6.11169 44.3839 5.93765C44.3622 5.7636 44.2951 5.59833 44.1893 5.45842C44.0835 5.3185 43.9428 5.20887 43.7813 5.14052C43.6197 5.07217 43.4431 5.0475 43.269 5.069C41.7529 5.25165 40.3639 6.00671 39.3862 7.17971C38.4085 8.3527 37.9159 9.85497 38.0093 11.3792C38.1027 12.9033 38.775 14.3342 39.8886 15.3791C41.0022 16.424 42.473 17.0038 44 17ZM42.017 7.549C42.005 7.7 42 7.849 42 8C42.0018 9.37944 42.4781 10.7163 43.3488 11.7862C44.2195 12.8561 45.4317 13.594 46.782 13.876C46.3761 14.2725 45.8903 14.5778 45.357 14.7718C44.8238 14.9657 44.2553 15.0438 43.6895 15.0008C43.1237 14.9578 42.5736 14.7947 42.0758 14.5223C41.578 14.25 41.1439 13.8747 40.8026 13.4214C40.4612 12.9682 40.2204 12.4474 40.0961 11.8937C39.9719 11.3401 39.967 10.7663 40.0819 10.2106C40.1968 9.65494 40.4289 9.13015 40.7625 8.6712C41.0962 8.21225 41.5239 7.82969 42.017 7.549V7.549Z" fill="#3B8686"/>
<path d="M49 6H50V7C50 7.26522 50.1054 7.51957 50.2929 7.70711C50.4804 7.89464 50.7348 8 51 8C51.2652 8 51.5196 7.89464 51.7071 7.70711C51.8946 7.51957 52 7.26522 52 7V6H53C53.2652 6 53.5196 5.89464 53.7071 5.70711C53.8946 5.51957 54 5.26522 54 5C54 4.73478 53.8946 4.48043 53.7071 4.29289C53.5196 4.10536 53.2652 4 53 4H52V3C52 2.73478 51.8946 2.48043 51.7071 2.29289C51.5196 2.10536 51.2652 2 51 2C50.7348 2 50.4804 2.10536 50.2929 2.29289C50.1054 2.48043 50 2.73478 50 3V4H49C48.7348 4 48.4804 4.10536 48.2929 4.29289C48.1054 4.48043 48 4.73478 48 5C48 5.26522 48.1054 5.51957 48.2929 5.70711C48.4804 5.89464 48.7348 6 49 6Z" fill="#3B8686"/>
<path d="M55 11H56V12C56 12.2652 56.1054 12.5196 56.2929 12.7071C56.4804 12.8946 56.7348 13 57 13C57.2652 13 57.5196 12.8946 57.7071 12.7071C57.8946 12.5196 58 12.2652 58 12V11H59C59.2652 11 59.5196 10.8946 59.7071 10.7071C59.8946 10.5196 60 10.2652 60 10C60 9.73478 59.8946 9.48043 59.7071 9.29289C59.5196 9.10536 59.2652 9 59 9H58V8C58 7.73478 57.8946 7.48043 57.7071 7.29289C57.5196 7.10536 57.2652 7 57 7C56.7348 7 56.4804 7.10536 56.2929 7.29289C56.1054 7.48043 56 7.73478 56 8V9H55C54.7348 9 54.4804 9.10536 54.2929 9.29289C54.1054 9.48043 54 9.73478 54 10C54 10.2652 54.1054 10.5196 54.2929 10.7071C54.4804 10.8946 54.7348 11 55 11Z" fill="#3B8686"/>
<path d="M51 54.25C51 52.036 49.111 47 46 47C42.889 47 41 52.036 41 54.25C41.0097 55.0616 41.2298 55.8568 41.6387 56.5579C42.0476 57.259 42.6314 57.842 43.333 58.25L41.293 60.29C41.1975 60.3822 41.1213 60.4926 41.0689 60.6146C41.0165 60.7366 40.9889 60.8678 40.9878 61.0006C40.9866 61.1334 41.0119 61.2651 41.0622 61.388C41.1125 61.5109 41.1867 61.6225 41.2806 61.7164C41.3745 61.8103 41.4862 61.8845 41.6091 61.9348C41.732 61.9851 41.8636 62.0104 41.9964 62.0093C42.1292 62.0081 42.2604 61.9805 42.3824 61.9281C42.5044 61.8757 42.6148 61.7995 42.707 61.704L45 59.414V61C45 61.2652 45.1054 61.5196 45.2929 61.7071C45.4804 61.8946 45.7348 62 46 62C46.2652 62 46.5196 61.8946 46.7071 61.7071C46.8947 61.5196 47 61.2652 47 61V59.414L49.293 61.707C49.4816 61.8892 49.7342 61.99 49.9964 61.9877C50.2586 61.9854 50.5094 61.8802 50.6948 61.6948C50.8802 61.5094 50.9854 61.2586 50.9877 60.9964C50.99 60.7342 50.8892 60.4816 50.707 60.293L48.667 58.253C49.3691 57.8447 49.9531 57.2612 50.3621 56.5596C50.771 55.8579 50.9908 55.0621 51 54.25V54.25ZM45 56C45 55.18 45.68 54.043 46 54C46.323 54.043 47 55.18 47 56C47 56.2652 46.8947 56.5196 46.7071 56.7071C46.5196 56.8946 46.2652 57 46 57C45.7348 57 45.4804 56.8946 45.2929 56.7071C45.1054 56.5196 45 56.2652 45 56ZM48.863 55.028C48.513 53.58 47.462 52 46 52C44.538 52 43.487 53.58 43.137 55.028C43.0508 54.7775 43.0046 54.5149 43 54.25C43 52.47 44.62 49 46 49C47.38 49 49 52.47 49 54.25C48.9955 54.5149 48.9493 54.7775 48.863 55.028V55.028Z" fill="#3B8686"/>
<path d="M38 54H31C30.8022 54 30.609 54.0587 30.4445 54.1686C30.2801 54.2785 30.152 54.4346 30.0763 54.6173C30.0007 54.8 29.9808 55.0011 30.0194 55.195C30.058 55.389 30.1532 55.5671 30.293 55.707L33.086 58.5L31.293 60.293C31.1108 60.4816 31.01 60.7342 31.0123 60.9964C31.0146 61.2586 31.1198 61.5094 31.3052 61.6948C31.4906 61.8802 31.7414 61.9854 32.0036 61.9877C32.2658 61.99 32.5184 61.8892 32.707 61.707L34.5 59.914L36.293 61.707C36.4816 61.8892 36.7342 61.99 36.9964 61.9877C37.2586 61.9854 37.5094 61.8802 37.6948 61.6948C37.8802 61.5094 37.9854 61.2586 37.9877 60.9964C37.99 60.7342 37.8892 60.4816 37.707 60.293L35.914 58.5L38.707 55.707C38.8468 55.5671 38.942 55.389 38.9806 55.195C39.0192 55.0011 38.9993 54.8 38.9237 54.6173C38.848 54.4346 38.7199 54.2785 38.5555 54.1686C38.391 54.0587 38.1978 54 38 54ZM34.5 57.086L33.414 56H35.586L34.5 57.086Z" fill="#3B8686"/>
<path d="M61 54H54C53.8023 54 53.609 54.0587 53.4445 54.1686C53.2801 54.2785 53.152 54.4346 53.0763 54.6173C53.0007 54.8 52.9808 55.0011 53.0194 55.195C53.058 55.389 53.1532 55.5671 53.293 55.707L56.086 58.5L54.293 60.293C54.1108 60.4816 54.01 60.7342 54.0123 60.9964C54.0146 61.2586 54.1198 61.5094 54.3052 61.6948C54.4906 61.8802 54.7414 61.9854 55.0036 61.9877C55.2658 61.99 55.5184 61.8892 55.707 61.707L57.5 59.914L59.293 61.707C59.4816 61.8892 59.7342 61.99 59.9964 61.9877C60.2586 61.9854 60.5094 61.8802 60.6948 61.6948C60.8802 61.5094 60.9854 61.2586 60.9877 60.9964C60.99 60.7342 60.8892 60.4816 60.707 60.293L58.914 58.5L61.707 55.707C61.8468 55.5671 61.942 55.389 61.9806 55.195C62.0192 55.0011 61.9994 54.8 61.9237 54.6173C61.848 54.4346 61.7199 54.2785 61.5555 54.1686C61.391 54.0587 61.1978 54 61 54ZM57.5 57.086L56.414 56H58.586L57.5 57.086Z" fill="#3B8686"/>
<path d="M19.574 42.4L16.909 36.586C16.8292 36.412 16.7011 36.2645 16.54 36.1611C16.3789 36.0578 16.1915 36.0028 16 36.0028C15.8086 36.0028 15.6211 36.0578 15.46 36.1611C15.2989 36.2645 15.1708 36.412 15.091 36.586L12.443 42.36L2.26701 53.319C2.08639 53.5134 1.99041 53.7716 2.00016 54.0368C2.00991 54.302 2.1246 54.5524 2.31901 54.733C2.51341 54.9136 2.7716 55.0096 3.03678 54.9999C3.30195 54.9901 3.55239 54.8754 3.73301 54.681L9.78201 48.166L4.09101 60.583C4.02111 60.7354 3.99063 60.9029 4.00237 61.0701C4.01411 61.2373 4.0677 61.3989 4.15821 61.54C4.24872 61.6811 4.37325 61.7971 4.52034 61.8775C4.66744 61.9579 4.83238 62 5.00001 62H27C27.1676 62 27.3326 61.9579 27.4797 61.8775C27.6268 61.7971 27.7513 61.6811 27.8418 61.54C27.9323 61.3989 27.9859 61.2373 27.9976 61.0701C28.0094 60.9029 27.9789 60.7354 27.909 60.583L22.258 48.254L27.265 53.678C27.3537 53.776 27.4608 53.8554 27.5804 53.9117C27.6999 53.968 27.8294 54.0001 27.9614 54.006C28.0934 54.012 28.2253 53.9917 28.3494 53.9464C28.4735 53.9011 28.5874 53.8316 28.6845 53.7421C28.7816 53.6525 28.86 53.5445 28.9152 53.4245C28.9703 53.3044 29.0011 53.1746 29.0058 53.0426C29.0105 52.9105 28.989 52.7789 28.9425 52.6552C28.896 52.5315 28.8255 52.4183 28.735 52.322L19.574 42.4ZM13.574 60L16.587 57.809C16.7148 57.7163 16.8189 57.5947 16.8907 57.4541C16.9624 57.3135 16.9999 57.1579 17 57V54.893L19.809 60H13.574ZM22.09 60L17 50.744V47C17 46.7348 16.8947 46.4804 16.7071 46.2929C16.5196 46.1054 16.2652 46 16 46C15.7348 46 15.4804 46.1054 15.2929 46.2929C15.1054 46.4804 15 46.7348 15 47V56.491L10.175 60H6.55901L16 39.4L25.441 60H22.09Z" fill="#3B8686"/>
</svg>
