<?xml version="1.0" encoding="UTF-8" standalone="no"?> <svg width="48" height="48" viewBox="0 0 48 48" fill="none" xmlns="http://www.w3.org/2000/svg">
<path d="M11 18H7V40H11V18Z" fill="#EAEFF0"/>
<path d="M11 18H7V23H11V18Z" fill="#D9E1E2"/>
<path d="M6 14V19C6 19.2652 6.10536 19.5196 6.29289 19.7071C6.48043 19.8946 6.73478 20 7 20H11C11.2652 20 11.5196 19.8946 11.7071 19.7071C11.8946 19.5196 12 19.2652 12 19V14H6Z" fill="#8FA5A5"/>
<path d="M21 18H17V40H21V18Z" fill="#EAEFF0"/>
<path d="M21 18H17V23H21V18Z" fill="#D9E1E2"/>
<path d="M16 14V19C16 19.2652 16.1054 19.5196 16.2929 19.7071C16.4804 19.8946 16.7348 20 17 20H21C21.2652 20 21.5196 19.8946 21.7071 19.7071C21.8946 19.5196 22 19.2652 22 19V14H16Z" fill="#8FA5A5"/>
<path d="M31 18H27V40H31V18Z" fill="#EAEFF0"/>
<path d="M31 18H27V23H31V18Z" fill="#D9E1E2"/>
<path d="M26 14V19C26 19.2652 26.1054 19.5196 26.2929 19.7071C26.4804 19.8946 26.7348 20 27 20H31C31.2652 20 31.5196 19.8946 31.7071 19.7071C31.8946 19.5196 32 19.2652 32 19V14H26Z" fill="#8FA5A5"/>
<path d="M41 18H37V40H41V18Z" fill="#EAEFF0"/>
<path d="M41 18H37V23H41V18Z" fill="#D9E1E2"/>
<path d="M36 14V19C36 19.2652 36.1054 19.5196 36.2929 19.7071C36.4804 19.8946 36.7348 20 37 20H41C41.2652 20 41.5196 19.8946 41.7071 19.7071C41.8946 19.5196 42 19.2652 42 19V14H36Z" fill="#8FA5A5"/>
<path d="M43 38H5C4.44772 38 4 38.4477 4 39V42C4 42.5523 4.44772 43 5 43H43C43.5523 43 44 42.5523 44 42V39C44 38.4477 43.5523 38 43 38Z" fill="#EAEFF0"/>
<path d="M44 15.9999H4C3.73478 15.9999 3.48043 15.8945 3.29289 15.707C3.10536 15.5195 3 15.2651 3 14.9999V11.6649C3.00002 11.4553 3.06586 11.2511 3.18824 11.081C3.31061 10.9109 3.48333 10.7835 3.682 10.7169L23.559 4.0519C23.7644 3.98335 23.9866 3.98335 24.192 4.0519L44.315 10.7199C44.5144 10.7861 44.6879 10.9134 44.8108 11.0837C44.9338 11.2541 45 11.4588 45 11.6689V14.9999C45 15.2651 44.8946 15.5195 44.7071 15.707C44.5196 15.8945 44.2652 15.9999 44 15.9999Z" fill="#EAEFF0"/>
<path d="M44.629 9.77005L24.506 3.10005C24.0953 2.96405 23.6517 2.96405 23.241 3.10005L3.363 9.77005C2.96585 9.90349 2.62063 10.1583 2.37607 10.4985C2.13151 10.8387 1.99997 11.2471 2 11.6661V15.0001C2 15.5305 2.21071 16.0392 2.58579 16.4143C2.96086 16.7893 3.46957 17.0001 4 17.0001H5V19C5.00105 19.3496 5.094 19.6926 5.26952 19.9949C5.44504 20.2971 5.69696 20.5479 6 20.722V37H5C4.46957 37 3.96086 37.2108 3.58579 37.5858C3.21071 37.9609 3 38.4696 3 39V42C3 42.5305 3.21071 43.0392 3.58579 43.4143C3.96086 43.7893 4.46957 44 5 44H43C43.5304 44 44.0391 43.7893 44.4142 43.4143C44.7893 43.0392 45 42.5305 45 42V39C45 38.4696 44.7893 37.9609 44.4142 37.5858C44.0391 37.2108 43.5304 37 43 37H42V20.722C42.303 20.5479 42.555 20.2971 42.7305 19.9949C42.906 19.6926 42.9989 19.3496 43 19V17.0001H44C44.5304 17.0001 45.0391 16.7893 45.4142 16.4143C45.7893 16.0392 46 15.5305 46 15.0001V11.6681C45.9999 11.2478 45.8674 10.8382 45.6213 10.4975C45.3752 10.1568 45.028 9.90223 44.629 9.77005V9.77005ZM36 20.722V37H32V20.722C32.303 20.5479 32.555 20.2971 32.7305 19.9949C32.906 19.6926 32.9989 19.3496 33 19V17.0001H35V19C35.0011 19.3496 35.094 19.6926 35.2695 19.9949C35.445 20.2971 35.697 20.5479 36 20.722V20.722ZM28 21H30V37H28V21ZM31 19H27V17.0001H31V19ZM26 20.722V37H22V20.722C22.303 20.5479 22.555 20.2971 22.7305 19.9949C22.906 19.6926 22.9989 19.3496 23 19V17.0001H25V19C25.0011 19.3496 25.094 19.6926 25.2695 19.9949C25.445 20.2971 25.697 20.5479 26 20.722ZM18 21H20V37H18V21ZM21 19H17V17.0001H21V19ZM16 20.722V37H12V20.722C12.303 20.5479 12.555 20.2971 12.7305 19.9949C12.906 19.6926 12.9989 19.3496 13 19V17.0001H15V19C15.0011 19.3496 15.094 19.6926 15.2695 19.9949C15.445 20.2971 15.697 20.5479 16 20.722ZM11 19H7V17.0001H11V19ZM8 21H10V37H8V21ZM43 39V42H5V39H43ZM38 37V21H40V37H38ZM41 19H37V17.0001H41V19ZM4 15.0001V11.6661L23.877 5.00005L44 11.6681V15.0001H4Z" fill="black"/>
</svg>
